<mxfile host="app.diagrams.net" modified="2024-06-30T07:18:06.728Z" agent="Mozilla/5.0 (Macintosh; Intel Mac OS X 10_15_7) AppleWebKit/537.36 (KHTML, like Gecko) Chrome/126.0.0.0 Safari/537.36" etag="r53Q9mU6GRFC6750GJDA" version="24.6.4" type="github">
  <diagram name="Page-1" id="bXnuZXWvN6B_vQ7cFQM5">
    <mxGraphModel dx="2419" dy="1944" grid="1" gridSize="10" guides="1" tooltips="1" connect="1" arrows="1" fold="1" page="1" pageScale="1" pageWidth="827" pageHeight="1169" math="0" shadow="0">
      <root>
        <mxCell id="0" />
        <mxCell id="1" parent="0" />
        <mxCell id="V9HJVicfxcj-Xi3RmbWV-1" value="&lt;font style=&quot;font-size: 24px;&quot;&gt;Control&lt;/font&gt;" style="whiteSpace=wrap;html=1;aspect=fixed;" parent="1" vertex="1">
          <mxGeometry x="81" y="80" width="378" height="378" as="geometry" />
        </mxCell>
        <mxCell id="V9HJVicfxcj-Xi3RmbWV-6" value="MUX" style="verticalLabelPosition=middle;verticalAlign=middle;html=1;shape=trapezoid;perimeter=trapezoidPerimeter;whiteSpace=wrap;size=0.23;arcSize=10;flipV=1;labelPosition=center;align=center;rotation=-90;" parent="1" vertex="1">
          <mxGeometry x="1590" y="490" width="290" height="94" as="geometry" />
        </mxCell>
        <mxCell id="V9HJVicfxcj-Xi3RmbWV-8" value="Binary2Gray" style="whiteSpace=wrap;html=1;aspect=fixed;" parent="1" vertex="1">
          <mxGeometry x="1430" y="400" width="160" height="160" as="geometry" />
        </mxCell>
        <mxCell id="V9HJVicfxcj-Xi3RmbWV-9" value="" style="edgeStyle=none;orthogonalLoop=1;jettySize=auto;html=1;rounded=0;" parent="1" edge="1">
          <mxGeometry width="100" relative="1" as="geometry">
            <mxPoint x="-26" y="155" as="sourcePoint" />
            <mxPoint x="74" y="155" as="targetPoint" />
            <Array as="points" />
          </mxGeometry>
        </mxCell>
        <mxCell id="V9HJVicfxcj-Xi3RmbWV-10" value="&lt;font style=&quot;font-size: 24px;&quot;&gt;Reset&lt;/font&gt;" style="text;html=1;align=center;verticalAlign=middle;resizable=0;points=[];autosize=1;strokeColor=none;fillColor=none;" parent="1" vertex="1">
          <mxGeometry x="-21" y="118" width="90" height="40" as="geometry" />
        </mxCell>
        <mxCell id="V9HJVicfxcj-Xi3RmbWV-11" value="" style="edgeStyle=none;orthogonalLoop=1;jettySize=auto;html=1;rounded=0;" parent="1" edge="1">
          <mxGeometry width="100" relative="1" as="geometry">
            <mxPoint x="-26" y="200" as="sourcePoint" />
            <mxPoint x="74" y="200" as="targetPoint" />
            <Array as="points" />
          </mxGeometry>
        </mxCell>
        <mxCell id="V9HJVicfxcj-Xi3RmbWV-12" value="&lt;font style=&quot;font-size: 24px;&quot;&gt;Clk&lt;/font&gt;" style="text;html=1;align=center;verticalAlign=middle;resizable=0;points=[];autosize=1;strokeColor=none;fillColor=none;" parent="1" vertex="1">
          <mxGeometry x="-10" y="160" width="60" height="40" as="geometry" />
        </mxCell>
        <mxCell id="V9HJVicfxcj-Xi3RmbWV-13" value="" style="edgeStyle=none;orthogonalLoop=1;jettySize=auto;html=1;rounded=0;" parent="1" edge="1">
          <mxGeometry width="100" relative="1" as="geometry">
            <mxPoint x="-25" y="240" as="sourcePoint" />
            <mxPoint x="75" y="240" as="targetPoint" />
            <Array as="points" />
          </mxGeometry>
        </mxCell>
        <mxCell id="V9HJVicfxcj-Xi3RmbWV-14" value="&lt;font style=&quot;font-size: 24px;&quot;&gt;Sync&lt;/font&gt;" style="text;html=1;align=center;verticalAlign=middle;resizable=0;points=[];autosize=1;strokeColor=none;fillColor=none;" parent="1" vertex="1">
          <mxGeometry x="-14" y="201" width="80" height="40" as="geometry" />
        </mxCell>
        <mxCell id="V9HJVicfxcj-Xi3RmbWV-15" value="" style="edgeStyle=none;orthogonalLoop=1;jettySize=auto;html=1;rounded=0;" parent="1" edge="1">
          <mxGeometry width="100" relative="1" as="geometry">
            <mxPoint x="-24" y="280" as="sourcePoint" />
            <mxPoint x="76" y="280" as="targetPoint" />
            <Array as="points" />
          </mxGeometry>
        </mxCell>
        <mxCell id="V9HJVicfxcj-Xi3RmbWV-16" value="&lt;font style=&quot;font-size: 24px;&quot;&gt;f_sync&lt;/font&gt;" style="text;html=1;align=center;verticalAlign=middle;resizable=0;points=[];autosize=1;strokeColor=none;fillColor=none;" parent="1" vertex="1">
          <mxGeometry x="-21" y="245" width="90" height="40" as="geometry" />
        </mxCell>
        <mxCell id="V9HJVicfxcj-Xi3RmbWV-17" value="" style="edgeStyle=none;orthogonalLoop=1;jettySize=auto;html=1;rounded=0;" parent="1" edge="1">
          <mxGeometry width="100" relative="1" as="geometry">
            <mxPoint x="-25" y="322" as="sourcePoint" />
            <mxPoint x="75" y="322" as="targetPoint" />
            <Array as="points" />
          </mxGeometry>
        </mxCell>
        <mxCell id="V9HJVicfxcj-Xi3RmbWV-18" value="&lt;font style=&quot;font-size: 24px;&quot;&gt;[2:0]Mode&lt;/font&gt;" style="text;html=1;align=center;verticalAlign=middle;resizable=0;points=[];autosize=1;strokeColor=none;fillColor=none;" parent="1" vertex="1">
          <mxGeometry x="-40" y="285" width="130" height="40" as="geometry" />
        </mxCell>
        <mxCell id="V9HJVicfxcj-Xi3RmbWV-19" value="" style="edgeStyle=none;orthogonalLoop=1;jettySize=auto;html=1;rounded=0;" parent="1" edge="1">
          <mxGeometry width="100" relative="1" as="geometry">
            <mxPoint x="-23" y="363" as="sourcePoint" />
            <mxPoint x="77" y="363" as="targetPoint" />
            <Array as="points" />
          </mxGeometry>
        </mxCell>
        <mxCell id="V9HJVicfxcj-Xi3RmbWV-20" value="&lt;font style=&quot;font-size: 24px;&quot;&gt;[1:0]X&lt;/font&gt;" style="text;html=1;align=center;verticalAlign=middle;resizable=0;points=[];autosize=1;strokeColor=none;fillColor=none;" parent="1" vertex="1">
          <mxGeometry x="-22" y="325" width="90" height="40" as="geometry" />
        </mxCell>
        <mxCell id="V9HJVicfxcj-Xi3RmbWV-29" value="&lt;span style=&quot;color: rgba(0, 0, 0, 0); font-family: monospace; font-size: 0px; text-align: start;&quot;&gt;%3CmxGraphModel%3E%3Croot%3E%3CmxCell%20id%3D%220%22%2F%3E%3CmxCell%20id%3D%221%22%20parent%3D%220%22%2F%3E%3CmxCell%20id%3D%222%22%20value%3D%22%22%20style%3D%22edgeStyle%3Dnone%3BorthogonalLoop%3D1%3BjettySize%3Dauto%3Bhtml%3D1%3Brounded%3D0%3B%22%20edge%3D%221%22%20parent%3D%221%22%3E%3CmxGeometry%20width%3D%22100%22%20relative%3D%221%22%20as%3D%22geometry%22%3E%3CmxPoint%20x%3D%22-14%22%20y%3D%22375%22%20as%3D%22sourcePoint%22%2F%3E%3CmxPoint%20x%3D%2286%22%20y%3D%22375%22%20as%3D%22targetPoint%22%2F%3E%3CArray%20as%3D%22points%22%2F%3E%3C%2FmxGeometry%3E%3C%2FmxCell%3E%3CmxCell%20id%3D%223%22%20value%3D%22%22%20style%3D%22edgeStyle%3Dnone%3BorthogonalLoop%3D1%3BjettySize%3Dauto%3Bhtml%3D1%3Brounded%3D0%3B%22%20edge%3D%221%22%20parent%3D%221%22%3E%3CmxGeometry%20width%3D%22100%22%20relative%3D%221%22%20as%3D%22geometry%22%3E%3CmxPoint%20x%3D%22-13%22%20y%3D%22415%22%20as%3D%22sourcePoint%22%2F%3E%3CmxPoint%20x%3D%2287%22%20y%3D%22415%22%20as%3D%22targetPoint%22%2F%3E%3CArray%20as%3D%22points%22%2F%3E%3C%2FmxGeometry%3E%3C%2FmxCell%3E%3C%2Froot%3E%3C%2FmxGraphModel%3E&lt;/span&gt;" style="text;html=1;align=center;verticalAlign=middle;resizable=0;points=[];autosize=1;strokeColor=none;fillColor=none;" parent="1" vertex="1">
          <mxGeometry x="23" y="688" width="20" height="30" as="geometry" />
        </mxCell>
        <mxCell id="V9HJVicfxcj-Xi3RmbWV-32" value="" style="edgeStyle=none;orthogonalLoop=1;jettySize=auto;html=1;rounded=0;" parent="1" edge="1">
          <mxGeometry width="100" relative="1" as="geometry">
            <mxPoint x="-23" y="627" as="sourcePoint" />
            <mxPoint x="77" y="627" as="targetPoint" />
            <Array as="points" />
          </mxGeometry>
        </mxCell>
        <mxCell id="V9HJVicfxcj-Xi3RmbWV-33" value="" style="edgeStyle=none;orthogonalLoop=1;jettySize=auto;html=1;rounded=0;" parent="1" edge="1">
          <mxGeometry width="100" relative="1" as="geometry">
            <mxPoint x="-22" y="667" as="sourcePoint" />
            <mxPoint x="78" y="667" as="targetPoint" />
            <Array as="points" />
          </mxGeometry>
        </mxCell>
        <mxCell id="V9HJVicfxcj-Xi3RmbWV-35" value="" style="edgeStyle=none;orthogonalLoop=1;jettySize=auto;html=1;rounded=0;" parent="1" edge="1">
          <mxGeometry width="100" relative="1" as="geometry">
            <mxPoint x="-21" y="710" as="sourcePoint" />
            <mxPoint x="79" y="710" as="targetPoint" />
            <Array as="points" />
          </mxGeometry>
        </mxCell>
        <mxCell id="V9HJVicfxcj-Xi3RmbWV-36" value="&lt;font style=&quot;font-size: 24px;&quot;&gt;Clk&lt;/font&gt;" style="text;html=1;align=center;verticalAlign=middle;resizable=0;points=[];autosize=1;strokeColor=none;fillColor=none;" parent="1" vertex="1">
          <mxGeometry x="-7" y="586" width="60" height="40" as="geometry" />
        </mxCell>
        <mxCell id="V9HJVicfxcj-Xi3RmbWV-37" value="&lt;font style=&quot;font-size: 24px;&quot;&gt;Reset&lt;/font&gt;" style="text;html=1;align=center;verticalAlign=middle;resizable=0;points=[];autosize=1;strokeColor=none;fillColor=none;" parent="1" vertex="1">
          <mxGeometry x="-23" y="630" width="90" height="40" as="geometry" />
        </mxCell>
        <mxCell id="V9HJVicfxcj-Xi3RmbWV-38" value="&lt;font style=&quot;font-size: 24px;&quot;&gt;[1:0]Y&lt;/font&gt;" style="text;html=1;align=center;verticalAlign=middle;resizable=0;points=[];autosize=1;strokeColor=none;fillColor=none;" parent="1" vertex="1">
          <mxGeometry x="-20" y="670" width="90" height="40" as="geometry" />
        </mxCell>
        <mxCell id="V9HJVicfxcj-Xi3RmbWV-43" value="&lt;font style=&quot;font-size: 24px;&quot;&gt;NewLine&lt;/font&gt;" style="text;html=1;align=center;verticalAlign=middle;resizable=0;points=[];autosize=1;strokeColor=none;fillColor=none;" parent="1" vertex="1">
          <mxGeometry x="60" y="490" width="120" height="40" as="geometry" />
        </mxCell>
        <mxCell id="V9HJVicfxcj-Xi3RmbWV-49" value="" style="edgeStyle=none;orthogonalLoop=1;jettySize=auto;html=1;rounded=0;exitX=0.104;exitY=1.002;exitDx=0;exitDy=0;exitPerimeter=0;entryX=0.18;entryY=-0.007;entryDx=0;entryDy=0;entryPerimeter=0;" parent="1" edge="1">
          <mxGeometry width="100" relative="1" as="geometry">
            <mxPoint x="172" y="459" as="sourcePoint" />
            <mxPoint x="171" y="559" as="targetPoint" />
            <Array as="points" />
          </mxGeometry>
        </mxCell>
        <mxCell id="V9HJVicfxcj-Xi3RmbWV-50" value="" style="edgeStyle=none;orthogonalLoop=1;jettySize=auto;html=1;rounded=0;exitX=0.104;exitY=1.002;exitDx=0;exitDy=0;exitPerimeter=0;entryX=0.18;entryY=-0.007;entryDx=0;entryDy=0;entryPerimeter=0;" parent="1" edge="1">
          <mxGeometry width="100" relative="1" as="geometry">
            <mxPoint x="281" y="460" as="sourcePoint" />
            <mxPoint x="280" y="560" as="targetPoint" />
            <Array as="points" />
          </mxGeometry>
        </mxCell>
        <mxCell id="V9HJVicfxcj-Xi3RmbWV-51" value="&lt;font style=&quot;font-size: 24px;&quot;&gt;FV_enb&lt;/font&gt;" style="text;html=1;align=center;verticalAlign=middle;resizable=0;points=[];autosize=1;strokeColor=none;fillColor=none;" parent="1" vertex="1">
          <mxGeometry x="180" y="490" width="110" height="40" as="geometry" />
        </mxCell>
        <mxCell id="V9HJVicfxcj-Xi3RmbWV-54" value="&lt;font style=&quot;font-size: 24px;&quot;&gt;Ramp&lt;/font&gt;" style="rounded=0;whiteSpace=wrap;html=1;" parent="1" vertex="1">
          <mxGeometry x="80" y="560" width="330" height="190" as="geometry" />
        </mxCell>
        <mxCell id="V9HJVicfxcj-Xi3RmbWV-55" value="" style="endArrow=classic;html=1;rounded=0;" parent="1" edge="1">
          <mxGeometry width="50" height="50" relative="1" as="geometry">
            <mxPoint x="724" y="708.17" as="sourcePoint" />
            <mxPoint x="884" y="708" as="targetPoint" />
          </mxGeometry>
        </mxCell>
        <mxCell id="V9HJVicfxcj-Xi3RmbWV-56" value="&lt;font style=&quot;font-size: 24px;&quot;&gt;[11:0]LoadVal&lt;/font&gt;" style="text;html=1;align=center;verticalAlign=middle;resizable=0;points=[];autosize=1;strokeColor=none;fillColor=none;" parent="1" vertex="1">
          <mxGeometry x="714" y="670" width="170" height="40" as="geometry" />
        </mxCell>
        <mxCell id="V9HJVicfxcj-Xi3RmbWV-57" value="" style="endArrow=classic;html=1;rounded=0;" parent="1" edge="1">
          <mxGeometry width="50" height="50" relative="1" as="geometry">
            <mxPoint x="459" y="420" as="sourcePoint" />
            <mxPoint x="880" y="420" as="targetPoint" />
          </mxGeometry>
        </mxCell>
        <mxCell id="V9HJVicfxcj-Xi3RmbWV-58" value="&lt;font style=&quot;font-size: 24px;&quot;&gt;Load&lt;/font&gt;" style="text;html=1;align=center;verticalAlign=middle;resizable=0;points=[];autosize=1;strokeColor=none;fillColor=none;" parent="1" vertex="1">
          <mxGeometry x="489" y="380" width="80" height="40" as="geometry" />
        </mxCell>
        <mxCell id="V9HJVicfxcj-Xi3RmbWV-59" value="" style="endArrow=classic;html=1;rounded=0;" parent="1" edge="1">
          <mxGeometry width="50" height="50" relative="1" as="geometry">
            <mxPoint x="460" y="368.67" as="sourcePoint" />
            <mxPoint x="880" y="370" as="targetPoint" />
          </mxGeometry>
        </mxCell>
        <mxCell id="V9HJVicfxcj-Xi3RmbWV-60" value="&lt;font style=&quot;font-size: 24px;&quot;&gt;[2:0]Xmode&lt;/font&gt;" style="text;html=1;align=center;verticalAlign=middle;resizable=0;points=[];autosize=1;strokeColor=none;fillColor=none;" parent="1" vertex="1">
          <mxGeometry x="460" y="328.66999999999996" width="150" height="40" as="geometry" />
        </mxCell>
        <mxCell id="V9HJVicfxcj-Xi3RmbWV-62" value="" style="endArrow=classic;html=1;rounded=0;" parent="1" edge="1">
          <mxGeometry width="50" height="50" relative="1" as="geometry">
            <mxPoint x="456" y="320" as="sourcePoint" />
            <mxPoint x="880" y="320" as="targetPoint" />
          </mxGeometry>
        </mxCell>
        <mxCell id="V9HJVicfxcj-Xi3RmbWV-63" value="&lt;font style=&quot;font-size: 24px;&quot;&gt;Cnt_enb&lt;/font&gt;" style="text;html=1;align=center;verticalAlign=middle;resizable=0;points=[];autosize=1;strokeColor=none;fillColor=none;" parent="1" vertex="1">
          <mxGeometry x="475" y="280" width="110" height="40" as="geometry" />
        </mxCell>
        <mxCell id="V9HJVicfxcj-Xi3RmbWV-64" value="" style="endArrow=classic;html=1;rounded=0;exitX=0.422;exitY=0;exitDx=0;exitDy=0;exitPerimeter=0;entryX=1;entryY=1;entryDx=0;entryDy=0;" parent="1" edge="1">
          <mxGeometry width="50" height="50" relative="1" as="geometry">
            <mxPoint x="200.51600000000008" y="80" as="sourcePoint" />
            <mxPoint x="201" as="targetPoint" />
          </mxGeometry>
        </mxCell>
        <mxCell id="V9HJVicfxcj-Xi3RmbWV-65" value="" style="endArrow=classic;html=1;rounded=0;exitX=0.422;exitY=0;exitDx=0;exitDy=0;exitPerimeter=0;entryX=1;entryY=1;entryDx=0;entryDy=0;" parent="1" edge="1">
          <mxGeometry width="50" height="50" relative="1" as="geometry">
            <mxPoint x="123" y="81" as="sourcePoint" />
            <mxPoint x="123.48399999999992" y="1" as="targetPoint" />
          </mxGeometry>
        </mxCell>
        <mxCell id="V9HJVicfxcj-Xi3RmbWV-66" value="&lt;span style=&quot;font-size: 24px;&quot;&gt;NewLine&lt;/span&gt;" style="text;html=1;align=center;verticalAlign=middle;resizable=0;points=[];autosize=1;strokeColor=none;fillColor=none;" parent="1" vertex="1">
          <mxGeometry x="15" y="20" width="120" height="40" as="geometry" />
        </mxCell>
        <mxCell id="V9HJVicfxcj-Xi3RmbWV-68" value="&lt;span style=&quot;font-size: 24px;&quot;&gt;Test&lt;/span&gt;" style="text;html=1;align=center;verticalAlign=middle;resizable=0;points=[];autosize=1;strokeColor=none;fillColor=none;" parent="1" vertex="1">
          <mxGeometry x="136" y="20" width="70" height="40" as="geometry" />
        </mxCell>
        <mxCell id="V9HJVicfxcj-Xi3RmbWV-69" value="&lt;font style=&quot;font-size: 24px;&quot;&gt;12BitCounter&lt;/font&gt;" style="rounded=0;whiteSpace=wrap;html=1;" parent="1" vertex="1">
          <mxGeometry x="96" y="-80" width="254" height="80" as="geometry" />
        </mxCell>
        <mxCell id="V9HJVicfxcj-Xi3RmbWV-70" value="" style="endArrow=classic;html=1;rounded=0;exitX=0.583;exitY=1.022;exitDx=0;exitDy=0;exitPerimeter=0;" parent="1" edge="1">
          <mxGeometry width="50" height="50" relative="1" as="geometry">
            <mxPoint x="309.0619999999999" y="1.3199999999999363" as="sourcePoint" />
            <mxPoint x="309" y="70" as="targetPoint" />
          </mxGeometry>
        </mxCell>
        <mxCell id="V9HJVicfxcj-Xi3RmbWV-72" value="&lt;span style=&quot;font-size: 24px;&quot;&gt;EndLine&lt;/span&gt;" style="text;html=1;align=center;verticalAlign=middle;resizable=0;points=[];autosize=1;strokeColor=none;fillColor=none;" parent="1" vertex="1">
          <mxGeometry x="205" y="20" width="110" height="40" as="geometry" />
        </mxCell>
        <mxCell id="V9HJVicfxcj-Xi3RmbWV-77" value="" style="endArrow=classic;html=1;rounded=0;" parent="1" edge="1">
          <mxGeometry width="50" height="50" relative="1" as="geometry">
            <mxPoint x="460" y="157.67000000000002" as="sourcePoint" />
            <mxPoint x="600" y="157.67000000000002" as="targetPoint" />
          </mxGeometry>
        </mxCell>
        <mxCell id="V9HJVicfxcj-Xi3RmbWV-78" value="&lt;font style=&quot;font-size: 24px;&quot;&gt;NewLine&lt;/font&gt;" style="text;html=1;align=center;verticalAlign=middle;resizable=0;points=[];autosize=1;strokeColor=none;fillColor=none;" parent="1" vertex="1">
          <mxGeometry x="471" y="117.67000000000002" width="120" height="40" as="geometry" />
        </mxCell>
        <mxCell id="V9HJVicfxcj-Xi3RmbWV-80" value="&lt;font style=&quot;font-size: 24px;&quot;&gt;EndFrame&lt;/font&gt;" style="text;html=1;align=center;verticalAlign=middle;resizable=0;points=[];autosize=1;strokeColor=none;fillColor=none;" parent="1" vertex="1">
          <mxGeometry x="459" y="70" width="140" height="40" as="geometry" />
        </mxCell>
        <mxCell id="V9HJVicfxcj-Xi3RmbWV-81" value="" style="endArrow=classic;html=1;rounded=0;" parent="1" edge="1">
          <mxGeometry width="50" height="50" relative="1" as="geometry">
            <mxPoint x="600" y="110" as="sourcePoint" />
            <mxPoint x="463" y="110" as="targetPoint" />
          </mxGeometry>
        </mxCell>
        <mxCell id="V9HJVicfxcj-Xi3RmbWV-82" value="&lt;font style=&quot;font-size: 24px;&quot;&gt;5BitCounter&lt;/font&gt;" style="rounded=0;whiteSpace=wrap;html=1;" parent="1" vertex="1">
          <mxGeometry x="602" y="94" width="161" height="80" as="geometry" />
        </mxCell>
        <mxCell id="V9HJVicfxcj-Xi3RmbWV-83" value="" style="endArrow=classic;html=1;rounded=0;" parent="1" edge="1">
          <mxGeometry width="50" height="50" relative="1" as="geometry">
            <mxPoint x="720" y="10" as="sourcePoint" />
            <mxPoint x="720" y="90" as="targetPoint" />
          </mxGeometry>
        </mxCell>
        <mxCell id="V9HJVicfxcj-Xi3RmbWV-84" value="" style="endArrow=classic;html=1;rounded=0;" parent="1" edge="1">
          <mxGeometry width="50" height="50" relative="1" as="geometry">
            <mxPoint x="662" y="10" as="sourcePoint" />
            <mxPoint x="662" y="90" as="targetPoint" />
          </mxGeometry>
        </mxCell>
        <mxCell id="V9HJVicfxcj-Xi3RmbWV-85" value="" style="endArrow=classic;html=1;rounded=0;" parent="1" edge="1">
          <mxGeometry width="50" height="50" relative="1" as="geometry">
            <mxPoint x="251.33" y="-160" as="sourcePoint" />
            <mxPoint x="251.33" y="-80" as="targetPoint" />
          </mxGeometry>
        </mxCell>
        <mxCell id="V9HJVicfxcj-Xi3RmbWV-86" value="" style="endArrow=classic;html=1;rounded=0;" parent="1" edge="1">
          <mxGeometry width="50" height="50" relative="1" as="geometry">
            <mxPoint x="193.33" y="-160" as="sourcePoint" />
            <mxPoint x="193.33" y="-80" as="targetPoint" />
          </mxGeometry>
        </mxCell>
        <mxCell id="grZ6hcHH2rHkp3h9Grfc-1" value="MUX" style="verticalLabelPosition=middle;verticalAlign=middle;html=1;shape=trapezoid;perimeter=trapezoidPerimeter;whiteSpace=wrap;size=0.23;arcSize=10;flipV=1;labelPosition=center;align=center;rotation=-90;" vertex="1" parent="1">
          <mxGeometry x="550.5" y="659" width="246.25" height="99" as="geometry" />
        </mxCell>
        <mxCell id="grZ6hcHH2rHkp3h9Grfc-5" value="" style="endArrow=classic;html=1;rounded=0;" edge="1" parent="1">
          <mxGeometry width="50" height="50" relative="1" as="geometry">
            <mxPoint x="414" y="649.3299999999999" as="sourcePoint" />
            <mxPoint x="620" y="649" as="targetPoint" />
          </mxGeometry>
        </mxCell>
        <mxCell id="grZ6hcHH2rHkp3h9Grfc-8" value="&lt;span style=&quot;font-size: 24px;&quot;&gt;[11:0]out&lt;/span&gt;" style="text;html=1;align=center;verticalAlign=middle;resizable=0;points=[];autosize=1;strokeColor=none;fillColor=none;" vertex="1" parent="1">
          <mxGeometry x="450" y="610" width="120" height="40" as="geometry" />
        </mxCell>
        <mxCell id="grZ6hcHH2rHkp3h9Grfc-10" value="" style="endArrow=classic;html=1;rounded=0;" edge="1" parent="1">
          <mxGeometry width="50" height="50" relative="1" as="geometry">
            <mxPoint x="510" y="718" as="sourcePoint" />
            <mxPoint x="620" y="718" as="targetPoint" />
          </mxGeometry>
        </mxCell>
        <mxCell id="grZ6hcHH2rHkp3h9Grfc-11" value="" style="endArrow=classic;html=1;rounded=0;" edge="1" parent="1">
          <mxGeometry width="50" height="50" relative="1" as="geometry">
            <mxPoint x="510" y="766" as="sourcePoint" />
            <mxPoint x="620" y="766" as="targetPoint" />
          </mxGeometry>
        </mxCell>
        <mxCell id="grZ6hcHH2rHkp3h9Grfc-12" value="&lt;font style=&quot;font-size: 24px;&quot;&gt;[11:0]Val&lt;/font&gt;" style="text;html=1;align=center;verticalAlign=middle;resizable=0;points=[];autosize=1;strokeColor=none;fillColor=none;" vertex="1" parent="1">
          <mxGeometry x="500" y="678" width="110" height="40" as="geometry" />
        </mxCell>
        <mxCell id="grZ6hcHH2rHkp3h9Grfc-13" value="&lt;font style=&quot;font-size: 36px;&quot;&gt;Counter&lt;/font&gt;" style="rounded=0;whiteSpace=wrap;html=1;" vertex="1" parent="1">
          <mxGeometry x="884" y="280" width="360" height="486" as="geometry" />
        </mxCell>
        <mxCell id="grZ6hcHH2rHkp3h9Grfc-18" value="&lt;font style=&quot;font-size: 24px;&quot;&gt;12&#39;b1&lt;/font&gt;" style="text;html=1;align=center;verticalAlign=middle;resizable=0;points=[];autosize=1;strokeColor=none;fillColor=none;" vertex="1" parent="1">
          <mxGeometry x="515" y="726" width="80" height="40" as="geometry" />
        </mxCell>
        <mxCell id="grZ6hcHH2rHkp3h9Grfc-19" value="" style="endArrow=classic;html=1;rounded=0;entryX=1;entryY=0.75;entryDx=0;entryDy=0;" edge="1" parent="1" target="grZ6hcHH2rHkp3h9Grfc-1">
          <mxGeometry width="50" height="50" relative="1" as="geometry">
            <mxPoint x="350" y="460" as="sourcePoint" />
            <mxPoint x="820" y="530" as="targetPoint" />
            <Array as="points">
              <mxPoint x="350" y="510" />
              <mxPoint x="520" y="510" />
              <mxPoint x="691" y="510" />
            </Array>
          </mxGeometry>
        </mxCell>
        <mxCell id="grZ6hcHH2rHkp3h9Grfc-20" value="&lt;font style=&quot;font-size: 24px;&quot;&gt;valSel&lt;/font&gt;" style="text;html=1;align=center;verticalAlign=middle;resizable=0;points=[];autosize=1;strokeColor=none;fillColor=none;" vertex="1" parent="1">
          <mxGeometry x="495" y="470" width="90" height="40" as="geometry" />
        </mxCell>
        <mxCell id="grZ6hcHH2rHkp3h9Grfc-21" value="" style="edgeStyle=none;orthogonalLoop=1;jettySize=auto;html=1;rounded=0;" edge="1" parent="1">
          <mxGeometry width="100" relative="1" as="geometry">
            <mxPoint x="781" y="477" as="sourcePoint" />
            <mxPoint x="881" y="477" as="targetPoint" />
            <Array as="points" />
          </mxGeometry>
        </mxCell>
        <mxCell id="grZ6hcHH2rHkp3h9Grfc-22" value="" style="edgeStyle=none;orthogonalLoop=1;jettySize=auto;html=1;rounded=0;" edge="1" parent="1">
          <mxGeometry width="100" relative="1" as="geometry">
            <mxPoint x="782" y="517" as="sourcePoint" />
            <mxPoint x="882" y="517" as="targetPoint" />
            <Array as="points" />
          </mxGeometry>
        </mxCell>
        <mxCell id="grZ6hcHH2rHkp3h9Grfc-23" value="&lt;font style=&quot;font-size: 24px;&quot;&gt;Clk&lt;/font&gt;" style="text;html=1;align=center;verticalAlign=middle;resizable=0;points=[];autosize=1;strokeColor=none;fillColor=none;" vertex="1" parent="1">
          <mxGeometry x="797" y="436" width="60" height="40" as="geometry" />
        </mxCell>
        <mxCell id="grZ6hcHH2rHkp3h9Grfc-24" value="&lt;font style=&quot;font-size: 24px;&quot;&gt;Reset&lt;/font&gt;" style="text;html=1;align=center;verticalAlign=middle;resizable=0;points=[];autosize=1;strokeColor=none;fillColor=none;" vertex="1" parent="1">
          <mxGeometry x="781" y="480" width="90" height="40" as="geometry" />
        </mxCell>
        <mxCell id="grZ6hcHH2rHkp3h9Grfc-25" value="&lt;font style=&quot;font-size: 24px;&quot;&gt;Clk&lt;/font&gt;" style="text;html=1;align=center;verticalAlign=middle;resizable=0;points=[];autosize=1;strokeColor=none;fillColor=none;" vertex="1" parent="1">
          <mxGeometry x="610" y="20" width="60" height="40" as="geometry" />
        </mxCell>
        <mxCell id="grZ6hcHH2rHkp3h9Grfc-26" value="&lt;font style=&quot;font-size: 24px;&quot;&gt;Clk&lt;/font&gt;" style="text;html=1;align=center;verticalAlign=middle;resizable=0;points=[];autosize=1;strokeColor=none;fillColor=none;" vertex="1" parent="1">
          <mxGeometry x="141" y="-140" width="60" height="40" as="geometry" />
        </mxCell>
        <mxCell id="grZ6hcHH2rHkp3h9Grfc-27" value="&lt;font style=&quot;font-size: 24px;&quot;&gt;Reset&lt;/font&gt;" style="text;html=1;align=center;verticalAlign=middle;resizable=0;points=[];autosize=1;strokeColor=none;fillColor=none;" vertex="1" parent="1">
          <mxGeometry x="250" y="-140" width="90" height="40" as="geometry" />
        </mxCell>
        <mxCell id="grZ6hcHH2rHkp3h9Grfc-28" value="&lt;font style=&quot;font-size: 24px;&quot;&gt;Reset&lt;/font&gt;" style="text;html=1;align=center;verticalAlign=middle;resizable=0;points=[];autosize=1;strokeColor=none;fillColor=none;" vertex="1" parent="1">
          <mxGeometry x="720" y="20" width="90" height="40" as="geometry" />
        </mxCell>
        <mxCell id="grZ6hcHH2rHkp3h9Grfc-30" value="" style="endArrow=none;html=1;rounded=0;exitX=1;exitY=0.5;exitDx=0;exitDy=0;" edge="1" parent="1" source="grZ6hcHH2rHkp3h9Grfc-13">
          <mxGeometry width="50" height="50" relative="1" as="geometry">
            <mxPoint x="1570" y="540" as="sourcePoint" />
            <mxPoint x="1370" y="523" as="targetPoint" />
          </mxGeometry>
        </mxCell>
        <mxCell id="grZ6hcHH2rHkp3h9Grfc-31" value="" style="endArrow=classic;html=1;rounded=0;entryX=0;entryY=0.5;entryDx=0;entryDy=0;" edge="1" parent="1" target="V9HJVicfxcj-Xi3RmbWV-8">
          <mxGeometry width="50" height="50" relative="1" as="geometry">
            <mxPoint x="1370" y="524" as="sourcePoint" />
            <mxPoint x="1430" y="444" as="targetPoint" />
            <Array as="points">
              <mxPoint x="1370" y="480" />
              <mxPoint x="1400" y="480" />
            </Array>
          </mxGeometry>
        </mxCell>
        <mxCell id="grZ6hcHH2rHkp3h9Grfc-33" value="" style="endArrow=classic;html=1;rounded=0;" edge="1" parent="1">
          <mxGeometry width="50" height="50" relative="1" as="geometry">
            <mxPoint x="1370" y="520" as="sourcePoint" />
            <mxPoint x="1690" y="600" as="targetPoint" />
            <Array as="points">
              <mxPoint x="1370" y="600" />
            </Array>
          </mxGeometry>
        </mxCell>
        <mxCell id="grZ6hcHH2rHkp3h9Grfc-34" value="" style="endArrow=classic;html=1;rounded=0;exitX=1;exitY=0.5;exitDx=0;exitDy=0;" edge="1" parent="1" source="V9HJVicfxcj-Xi3RmbWV-8">
          <mxGeometry width="50" height="50" relative="1" as="geometry">
            <mxPoint x="1639.9999999999995" y="369.2800000000002" as="sourcePoint" />
            <mxPoint x="1680" y="480" as="targetPoint" />
          </mxGeometry>
        </mxCell>
        <mxCell id="grZ6hcHH2rHkp3h9Grfc-35" value="" style="endArrow=classic;html=1;rounded=0;exitX=0.5;exitY=1;exitDx=0;exitDy=0;" edge="1" parent="1" source="V9HJVicfxcj-Xi3RmbWV-6">
          <mxGeometry width="50" height="50" relative="1" as="geometry">
            <mxPoint x="1670" y="640" as="sourcePoint" />
            <mxPoint x="1890" y="537" as="targetPoint" />
          </mxGeometry>
        </mxCell>
        <mxCell id="grZ6hcHH2rHkp3h9Grfc-36" value="&lt;font style=&quot;font-size: 24px;&quot;&gt;[11:0]Cnt&lt;/font&gt;" style="text;html=1;align=center;verticalAlign=middle;resizable=0;points=[];autosize=1;strokeColor=none;fillColor=none;" vertex="1" parent="1">
          <mxGeometry x="1805" y="490" width="120" height="40" as="geometry" />
        </mxCell>
      </root>
    </mxGraphModel>
  </diagram>
</mxfile>
